<svg id="kendoka-react-horizontal_inline_svg__Layer_1"
     xmlns="http://www.w3.org/2000/svg" x="0" y="0"
     viewBox="0 0 1000 1000" xml:space="preserve"
     class="free-trial-react__Kendoka-sc-135vbks-0 kjMEhz">
<style>.kendoka-react-horizontal_inline_svg__st0{fill:#fff}.kendoka-react-horizontal_inline_svg__st1{fill:#84cef2}.kendoka-react-horizontal_inline_svg__st2{fill:#0c2749}.kendoka-react-horizontal_inline_svg__st3{fill:#fab16a}.kendoka-react-horizontal_inline_svg__st4{fill:#0b0204}</style>
    <circle class="kendoka-react-horizontal_inline_svg__st0" cx="303.7" cy="364.6" r="119.4"></circle>
    <path class="kendoka-react-horizontal_inline_svg__st1" d="M672.9 573.3L559 586.9l-22.5-172.5c-7.7-48.4 29.7-92.2 78.8-92.2 49 0 86.5 43.8 78.8 92.2l-21.2 158.9z"></path>
    <path class="kendoka-react-horizontal_inline_svg__st2" d="M732.1 418.4c-9 0-18.2-1.1-27.5-3.3-22.5-5.3-44.3-17-62.8-33.6-12.1-10.9-13.1-29.5-2.2-41.6 10.9-12.1 29.5-13.1 41.6-2.2 21.9 19.7 49 26.9 69 18.2 9.4-4.1 17.6-11.9 24.4-23.2 12.7-21.1 9.3-43.5 7.3-52.2-3.7-15.9 6.2-31.7 22-35.4 15.9-3.7 31.7 6.2 35.4 22 3.7 15.7 9.6 56.4-14.2 95.9-13.3 22.1-30.6 37.9-51.6 47-12.9 5.5-26.9 8.4-41.4 8.4z"></path>
    <path class="kendoka-react-horizontal_inline_svg__st1" d="M781.2 188.2l-9.4 119.1 80.8-5.6-32.1-120.2zM735.5 212.4l-16.9-12.7c-6.2-4.7-9.3-12.5-7.9-20.1l4.6-24.9c.6-3.2 4.5-4.7 7-2.6l2.3 1.9c.8.7 1.4 1.6 1.5 2.7l9.4 55.7z"></path>
    <path class="kendoka-react-horizontal_inline_svg__st3" d="M688.7 917.2c-2.7 0-5.4-.6-8-1.9-8.7-4.4-12.2-15.1-7.8-23.8l74.7-147c4.4-8.7 15.1-12.2 23.8-7.8s12.2 15.1 7.8 23.8l-74.7 147c-3.1 6.2-9.4 9.7-15.8 9.7z"></path><path class="kendoka-react-horizontal_inline_svg__st3" d="M671.8 898.5c-.6 10.4 7.8 19.2 18.2 19.1l6.8-.1 61.6-.8c5.3-.1 10-4 10.8-9.4.9-6.1-3.2-11.8-9.3-12.7l-32.8-5.7-33.8-7c-10.6-2.2-20.9 5.6-21.5 16.6zM221.1 917.2c-4.2 0-8.3-1.5-11.7-4.4-7.3-6.5-8-17.6-1.6-25l140.2-159c6.5-7.3 17.6-8 25-1.6 7.3 6.5 8 17.6 1.6 25l-140.3 159c-3.4 4-8.3 6-13.2 6z"></path>
    <path class="kendoka-react-horizontal_inline_svg__st3" d="M238.9 898.5c.6 10.4-7.8 19.2-18.2 19.1l-6.8-.1-61.6-.8c-5.3-.1-10-4-10.9-9.4-.9-6.1 3.2-11.8 9.3-12.7l32.8-5.7 33.8-7c10.7-2.2 20.9 5.6 21.6 16.6z"></path>
    <path class="kendoka-react-horizontal_inline_svg__st4" d="M645.8 611.7l-100.9 115c-.2.2-.4.5-.5.8l-80 134.6c-.9 1.5-2.6 2.5-4.4 2.5L148.9 867c-4.6 0-6.9-5.5-3.6-8.7l164.9-164.4c.4-.4.9-.8 1.4-1l251.1-119.2c1.3-.6 2.7-.7 4-.1l77.2 30.1c3.3 1.1 4.3 5.3 1.9 8z"></path>
    <path class="kendoka-react-horizontal_inline_svg__st4" d="M657.9 549.7l166 145.5c1.5 1.3 2.1 3.5 1.5 5.5l-54.2 163.9c-.7 2.1-2.7 3.5-4.9 3.5L570.2 867c-3.6 0-6-3.6-4.7-7L620 719.7c.3-.8.4-1.7.3-2.6l-20.9-149.3c-.4-2.5 1.2-5 3.7-5.6l50.1-13.7c1.6-.3 3.4.1 4.7 1.2zM550.5 322.7L507.1 366l37.2 14.8 45.7-47v-59.3h-39.5z"></path>
    <path class="kendoka-react-horizontal_inline_svg__st2" d="M547.9 532.4l133.6-13.1-5.8 47.2c-3.8 30.3-29.1 53.3-59.6 54.2-31.2.9-58.2-21.7-62.8-52.6l-5.4-35.7z"></path>
    <path class="kendoka-react-horizontal_inline_svg__st2" d="M772.5 611.1l-69 59.5c-2 1.7-4.9 1.3-6.3-.9l-65.4-99.6c-1.3-2-.7-4.7 1.3-6l37.6-23.5c1.4-.9 3.2-.9 4.6 0l96.7 63.5c2.4 1.8 2.6 5.1.5 7zM480 637.2l-28.1-25.6c-2.2-2-1.7-5.7 1-7l108.5-51.9c1.6-.8 3.5-.5 4.8.8l28.5 28c2.1 2.1 1.5 5.7-1.2 6.9l-108.8 49.5c-1.6.7-3.4.5-4.7-.7z"></path>
    <path class="kendoka-react-horizontal_inline_svg__st2" d="M507.9 634.5l75.3-59.5c.4-.3.9-.6 1.4-.7l66.8-20.2c2.6-.8 5.2 1 5.5 3.6l12.4 117.2c.3 2.9-2.4 5.3-5.2 4.6L509.6 642c-3.5-.9-4.5-5.3-1.7-7.5z"></path><path class="kendoka-react-horizontal_inline_svg__st1" d="M636.7 199.3l16-47.6c3.5-10.5 13.2-17.6 24.2-17.9 13.6-.4 24.6-11 25.5-24.6l1.8-27.1 14.7 4-4.2 35.5C713 135 701.5 145 688 144.8l-4.9-.1c-9.7-.2-18.7 5-23.4 13.4l-23 41.2z"></path>
    <path class="kendoka-react-horizontal_inline_svg__st1" d="M637 198.6l28-32.1c5.4-6.1 13.3-9.4 21.4-8.9l11.7.7c11.6.7 22.2-6.2 26.2-17.1l11-29.7 15.8 5.5-17 39.4c-4.8 11.1-16.5 17.5-28.4 15.5l-16.1-2.6c-7-1.2-14.3.6-20 4.9L637 198.6z"></path><path class="kendoka-react-horizontal_inline_svg__st4" d="M576.4 322.7l59.4 52 71.8-28.5-40.3-32.2c-5.8-4.6-9.2-11.7-9.2-19.1v-36.5h-81.7v64.3z"></path>
    <path class="kendoka-react-horizontal_inline_svg__st2" d="M549.8 234.8v63.1c0 13.7 11.1 24.8 24.7 24.8h22.3c34.2 0 61.9-27.7 61.9-61.9v-63.1c0-13.7-11.1-24.7-24.8-24.7h-22.3c-34.1 0-61.8 27.7-61.8 61.8z"></path><path class="kendoka-react-horizontal_inline_svg__st3" d="M630.4 257.9v-4c0-25.6-20.7-46.3-46.3-46.3-10.6 0-20.4 3.6-28.2 9.6-1.7 5.6-2.5 11.5-2.5 17.6v57.5c8.2 7.3 19 11.8 30.8 11.8 25.5 0 46.2-20.7 46.2-46.2z"></path>
    <path d="M634 242.9c0-31.4-23.4-57.3-53.7-61.3-18.2 10.8-30.4 30.6-30.4 53.3V298c0 .9.1 1.8.2 2.7 6.9 2.6 14.3 4.1 22.1 4.1 34.1-.1 61.8-27.8 61.8-61.9z" fill="none"></path><path fill="#e07e27" d="M558.2 268.2h22.3v-38.3z"></path><path class="kendoka-react-horizontal_inline_svg__st2" d="M552.8 221.2h104v4.9h-104zM549.8 243.5h107v4.9h-107zM549.8 288h86v4.9h-86zM549.8 265.8h107v4.9h-107z"></path>
    <path class="kendoka-react-horizontal_inline_svg__st0" d="M612.5 239.1h-5.1c-2 0-3.6-1.6-3.6-3.6v-.2c0-2 1.6-3.6 3.6-3.6h5.1c2 0 3.6 1.6 3.6 3.6v.2c0 2-1.6 3.6-3.6 3.6zM562 239.1h-5c-2 0-3.6-1.6-3.6-3.6v-.2c0-2 1.6-3.6 3.6-3.6h5.1c2 0 3.6 1.6 3.6 3.6v.2c-.1 2-1.7 3.6-3.7 3.6z">
</path><circle class="kendoka-react-horizontal_inline_svg__st4" cx="605.6" cy="235.3" r="3.8"></circle>
    <circle class="kendoka-react-horizontal_inline_svg__st4" cx="555.9" cy="235.3" r="3.8"></circle><g>
<path class="kendoka-react-horizontal_inline_svg__st3" d="M703.6 172.3l-83.3-4.6-221.3 4.7-160.1 3.9c-3 .1-5.4 2.5-5.4 5.5s2.4 5.4 5.3 5.5l160.2 4.4 221.3 4.6 83.2-4.7v-19.3z"></path><path class="kendoka-react-horizontal_inline_svg__st4" d="M386 189v-13.9c0-2.2 1.8-3.9 3.9-3.9h9.1c2.2 0 3.9 1.8 3.9 3.9V189c0 2.2-1.8 3.9-3.9 3.9h-9c-2.2.1-4-1.7-4-3.9zM233.1 185.6v-7.8c0-1.9 1.5-3.4 3.3-3.4h9.2c1.9 0 3.4 1.5 3.4 3.3v7.8c0 1.9-1.5 3.4-3.3 3.4h-9.2c-1.9 0-3.4-1.5-3.4-3.3zM859.4 197.8v-31.9l-156.3 6.3.1 19.4z"></path>
    <path class="kendoka-react-horizontal_inline_svg__st4" d="M692.5 220v-74.9c0-1.8 1.4-3.2 3.2-3.2h7.4c1.8 0 3.2 1.4 3.2 3.2V220c0 1.8-1.4 3.2-3.2 3.2h-7.4c-1.7 0-3.2-1.5-3.2-3.2z"></path></g>
    <g><path class="kendoka-react-horizontal_inline_svg__st1" d="M813.8 144.6l-26.8 1.9c-8.4.6-13.9 9.2-10.8 17l3.3 8.6c2.4 6.1 8.6 9.9 15.2 9.1l19.7-2.4c7.1-.9 12.5-6.9 12.7-14l.1-7.4c.1-7.4-6.1-13.3-13.4-12.8z"></path></g>
    <g><path class="kendoka-react-horizontal_inline_svg__st1" d="M802 211.8l-19.7-7.7c-7.2-2.8-12.3-9.5-13-17.3l-2.2-25.2c-.3-3.3 3-5.7 6.1-4.4l2.7 1.2c1 .4 1.8 1.2 2.2 2.1l23.9 51.3z"></path></g>
    <g><path d="M619.6 447.2c-13.4 0-29.1-2.5-45-11-18.7-9.9-34.1-26.5-43.4-46.7-6.8-14.8-.4-32.3 14.4-39.1 14.8-6.8 32.3-.4 39.1 14.4 2.3 4.9 7.6 14 17.5 19.3 13.1 7 27.1 3.4 35.5 1.3 16.3-4.1 26.8-13.6 31.2-17.6 26.3-23.9 30.6-59.7 31.3-74 .7-16.3 14.5-28.9 30.7-28.2 16.3.7 28.9 14.5 28.2 30.7-.7 15.9-3.5 32.3-8.2 47.3-8.5 27.2-22.8 50-42.3 67.8-6.4 5.8-25.8 23.4-56.4 31.1-6.4 1.8-18.1 4.7-32.6 4.7z" fill="#0a183d"></path></g>
    <g><path class="kendoka-react-horizontal_inline_svg__st1" d="M764.6 150.6l-27-5.6c-8-1.6-15.4 4.6-15.1 12.8l1.7 46.2 36.7 2.9 13.1-40.1c2.3-7.1-2-14.6-9.4-16.2z"></path>
        <path class="kendoka-react-horizontal_inline_svg__st1" d="M723.6 194.3L686.8 308l79.9 13.4-3.3-124.4z"></path></g>
    <g><path class="kendoka-react-horizontal_inline_svg__st4" d="M550.5 322.7L507.1 366l37.2 14.8 45.7-47z"></path></g>
    <g><circle class="kendoka-react-horizontal_inline_svg__st1" cx="304.6" cy="364.8" r="16.9"></circle>
        <path class="kendoka-react-horizontal_inline_svg__st1" d="M304.6 403.4c-23.7 0-44.4-2.8-59.8-8.1-10.1-3.4-18.6-8-24.6-13.2-6.4-5.5-9.9-11.5-9.9-17.3 0-11.1 12.2-22 32.7-29.2 16.8-5.9 38.7-9.1 61.6-9.1 22.5 0 44.1 3.2 60.8 8.9 9.8 3.4 18 7.7 23.8 12.6 6.4 5.3 9.7 11.1 9.7 16.8 0 11.6-13.7 23.3-35.7 30.6-15.6 5.1-36.4 8-58.6 8zm0-68.8c-21.7 0-43.2 3.1-59 8.6-18.9 6.6-27.3 15.6-27.3 21.6 0 6.2 9.1 16.1 29 22.9 14.6 5 34.4 7.7 57.2 7.7 21.4 0 41.3-2.7 56.1-7.6 20.7-6.9 30.2-16.7 30.2-23 0-3.2-2.4-6.9-6.8-10.6-5.1-4.2-12.5-8.1-21.3-11.1-15.8-5.5-36.5-8.5-58.1-8.5z"></path>
        <path class="kendoka-react-horizontal_inline_svg__st1" d="M266.4 448.8c-3.4 0-6.4-.7-9-2.2-9.6-5.6-13-21.6-8.9-42.9 3.3-17.5 11.5-38 22.9-57.9 11.2-19.5 24.8-36.6 38.1-48.2 7.8-6.8 15.7-11.8 22.8-14.4 7.8-2.9 14.5-2.9 19.4 0 10 5.8 13.4 23.5 8.7 46.2-3.3 16.1-11.2 35.6-22.3 54.8-11.8 20.5-24.6 37-36.9 47.8-8 7-16.2 12.1-23.7 14.8-4.1 1.3-7.8 2-11.1 2zm11.9-99c-10.9 18.8-18.9 39-22 55.4-3.7 19.6-.1 31.5 5 34.5 5.4 3.1 18.5.2 34.4-13.7 11.7-10.2 23.8-26 35.2-45.8 10.7-18.5 18.3-37.1 21.4-52.4 4.4-21.4.6-34.5-4.8-37.6-2.8-1.6-7.2-1.4-12.6.6-6.2 2.3-13.2 6.7-20.3 12.9-12.6 10.9-25.5 27.3-36.3 46.1z"></path>
        <path class="kendoka-react-horizontal_inline_svg__st1" d="M342.9 448.9c-9.1 0-20.7-5.5-32.8-15.9-13.5-11.6-27.2-28.9-38.7-48.8-11.3-19.5-19.3-39.7-22.7-57.1-2-10.1-2.4-19.5-1.1-26.9 1.4-8.1 4.8-14 9.7-16.8 10-5.8 27 .2 44.4 15.6 12.3 10.9 25.2 27.5 36.3 46.7 11.9 20.5 19.8 39.8 23 55.8 2.1 10.4 2.4 20.1.9 27.9-1.5 8.3-5 14.3-10.1 17.2-2.6 1.6-5.6 2.3-8.9 2.3zm-64.6-68.7c10.9 18.8 24.4 35.8 37 46.7 15.1 13 27.2 15.8 32.4 12.8 5.4-3.1 9.4-15.9 5.3-36.6-3-15.2-10.6-33.6-22-53.4-10.7-18.5-23-34.4-34.7-44.7-16.3-14.5-29.6-17.7-35-14.6-2.8 1.6-4.8 5.6-5.8 11.2-1.1 6.5-.8 14.8 1 24 3.2 16.5 11 35.9 21.8 54.6z"></path></g></svg>

